Coordinates
version=1
nRows=5
nColumns=40
inDegrees=yes

Units are S.I. units (second, meters, Newtons, ...)
If the header above contains a line with 'inDegrees', this indicates whether rotational values are in degrees (yes) or radians (no).

endheader
time	pelvis_tilt	pelvis_list	pelvis_rotation	pelvis_tx	pelvis_ty	pelvis_tz	hip_flexion_r	hip_adduction_r	hip_rotation_r	knee_angle_r	knee_angle_r_beta	ankle_angle_r	subtalar_angle_r	mtp_angle_r	hip_flexion_l	hip_adduction_l	hip_rotation_l	knee_angle_l	knee_angle_l_beta	ankle_angle_l	subtalar_angle_l	mtp_angle_l	lumbar_extension	lumbar_bending	lumbar_rotation	arm_flex_r	arm_add_r	arm_rot_r	elbow_flex_r	pro_sup_r	wrist_flex_r	wrist_dev_r	arm_flex_l	arm_add_l	arm_rot_l	elbow_flex_l	pro_sup_l	wrist_flex_l	wrist_dev_l
      5.17500000	    -16.69618518	     -5.10059664	     19.87596918	     -1.35712838	      0.93252273	      0.24886997	     70.07976786	    -15.72442464	     -7.76884760	     58.89065440	      1.02783582	      5.71838264	      0.00000000	      0.00000000	     -9.59321675	     -9.62962242	     18.90707681	     28.51609036	      0.49769967	    -19.24529467	      0.00000000	      0.00000000	    -14.13648417	     13.12698667	    -16.74511032	    -68.65569983	     -7.08864385	    -30.57757768	     79.81935050	     50.42599543	      0.00000000	      0.00000000	     68.04254699	    -17.52210971	      1.53664629	    130.30637557	     39.77893744	      0.00000000	      0.00000000
      5.18000000	    -16.43133789	     -4.56333266	     19.46691907	     -1.32291983	      0.93556568	      0.24834290	     68.25636206	    -15.63647717	     -8.15940967	     53.04746810	      0.92585298	      4.00297380	      0.00000000	      0.00000000	    -10.49016447	     -8.98392977	     19.55905200	     30.29561251	      0.52875819	    -19.90172975	      0.00000000	      0.00000000	    -14.31804110	     12.85177100	    -16.72870259	    -67.84878695	     -6.84970936	    -31.10733433	     80.14467248	     50.49335188	      0.00000000	      0.00000000	     64.88689557	    -19.00153522	      1.91588391	    131.40563918	     39.94357928	      0.00000000	      0.00000000
      5.18500000	    -16.14803751	     -4.04463959	     19.08726884	     -1.28889645	      0.93845852	      0.24816972	     66.27047416	    -15.47540411	     -8.61453056	     47.24140382	      0.82451804	      2.11499547	      0.00000000	      0.00000000	    -11.06416197	     -8.34180221	     20.00647139	     32.70529413	      0.57081507	    -20.00390729	      0.00000000	      0.00000000	    -14.56594190	     12.54397572	    -16.71845004	    -66.81598605	     -6.71946438	    -31.43736124	     80.48412993	     50.54365071	      0.00000000	      0.00000000	     61.42576542	    -20.48131249	      2.43347671	    132.22146905	     40.08648306	      0.00000000	      0.00000000
      5.19000000	    -15.83979215	     -3.52552256	     18.68715035	     -1.25499940	      0.94114205	      0.24837734	     64.17292582	    -15.21771058	     -9.08748779	     41.60233063	      0.72609765	      0.03913515	      0.00000000	      0.00000000	    -11.38239432	     -7.69464984	     20.18787312	     35.62313577	      0.62174101	    -19.73468850	      0.00000000	      0.00000000	    -14.89732686	     12.20878441	    -16.75993199	    -65.55690132	     -6.73649318	    -31.57750397	     80.96827062	     50.61928415	      0.00000000	      0.00000000	     57.64574148	    -22.10527882	      2.83525623	    132.62373925	     40.22758396	      0.00000000	      0.00000000
      5.19500000	    -15.51026687	     -3.03406639	     18.25535843	     -1.22122806	      0.94353587	      0.24895473	     62.02426507	    -14.85478335	     -9.58499523	     36.25795189	      0.63282064	     -2.10634576	      0.00000000	      0.00000000	    -11.44890130	     -7.08824279	     20.05645442	     38.98276565	      0.68037761	    -19.24504757	      0.00000000	      0.00000000	    -15.29310508	     11.83896146	    -16.75211549	    -64.13537575	     -6.85086715	    -31.53404983	     81.50486147	     50.69122989	      0.00000000	      0.00000000	     53.65564545	    -23.64474510	      3.29779425	    132.68212107	     40.34922714	      0.00000000	      0.00000000
